# xmcd
#
# Track frame offsets:
#	150
#	15536
#	31526
#	46036
#	61540
#	75707
#	91959
#	109508
#	126826
#	141352
#	156327
#	170126
#	194054
#	209297
#	226380
#	241043
#	252973
#	267070
#
# Disc length: 3760 seconds
#
# Revision: 1
# Processed by: cddbd v1.5.2PL0 Copyright (c) Steve Scherf et al.
# Submitted via: audiograbber 1.83.01
#
DISCID=e50eae12
DTITLE=Various Artist - Now That's What I Call Country Vol. 6
DYEAR=2013
DGENRE=Country
TTITLE0=Luke Bryan - Kiss Tomorrow Goodbye
TTITLE1=Little Big Town - Pontoon
TTITLE2=Taylor Swift - We Are Never Ever Getting Back Together
TTITLE3=Carrie Underwood - Good Girl
TTITLE4=Jason ALdean - Take A Little Ride
TTITLE5=Kip Moore - Somethin' 'Bout A Truck
TTITLE6=Lady Antebellum - Dancin' Away With My Heart
TTITLE7=Hunter Hayes - Wanted
TTITLE8=The Band Perry - Better Dig Two
TTITLE9=Miranda Lambert - The Fastest Girl In Town
TTITLE10=Dierks Bentley - 5-1-5-0
TTITLE11=Brad Paisley - Southern Comfort Zone
TTITLE12=Josh Turner - Time Is Love
TTITLE13=Gary Allen - Every Storm (Runs Out Of Rain)
TTITLE14=Jake Owen - The One That Got Away
TTITLE15=Chris Young - I Can Take It From There
TTITLE16=Love And Theft - Angel Eyes
TTITLE17=Easton Corbin - Lovin' You Is Fun
EXTD=
EXTT0=
EXTT1=
EXTT2=
EXTT3=
EXTT4=
EXTT5=
EXTT6=
EXTT7=
EXTT8=
EXTT9=
EXTT10=
EXTT11=
EXTT12=
EXTT13=
EXTT14=
EXTT15=
EXTT16=
EXTT17=
PLAYORDER=
